# Procedurally generated by tools/gen_island.py
# seed=1337
# lagoon floor sits below sea level at y=-1.55
# top-down UVs share the island's 120 m projection
o atoll_lagoon_floor
v 0.000000 -1.550000 0.000000
v 55.845726 -1.550000 0.000000
v 55.830382 -1.550000 1.370559
v 55.785738 -1.550000 2.740578
v 55.710736 -1.550000 4.109471
v 55.604296 -1.550000 5.476545
v 55.465364 -1.550000 6.841000
v 55.292960 -1.550000 8.201936
v 55.086222 -1.550000 9.558366
v 54.844446 -1.550000 10.909239
v 54.567114 -1.550000 12.253455
v 54.253912 -1.550000 13.589897
v 53.904748 -1.550000 14.917453
v 53.519751 -1.550000 16.235039
v 53.099259 -1.550000 17.541626
v 52.643811 -1.550000 18.836257
v 52.154114 -1.550000 20.118062
v 51.631016 -1.550000 21.386267
v 51.075471 -1.550000 22.640199
v 50.488498 -1.550000 23.879281
v 49.871140 -1.550000 25.103022
v 49.224430 -1.550000 26.311006
v 48.549351 -1.550000 27.502868
v 47.846807 -1.550000 28.678272
v 47.117597 -1.550000 29.836889
v 46.362398 -1.550000 30.978364
v 45.581755 -1.550000 32.102294
v 44.776080 -1.550000 33.208204
v 43.945657 -1.550000 34.295527
v 43.090658 -1.550000 35.363589
v 42.211164 -1.550000 36.411601
v 41.307192 -1.550000 37.438657
v 40.378724 -1.550000 38.443741
v 39.425742 -1.550000 39.425742
v 38.448260 -1.550000 40.383470
v 37.446360 -1.550000 41.315691
v 36.420216 -1.550000 42.221152
v 35.370125 -1.550000 43.098622
v 34.296521 -1.550000 43.946931
v 33.199991 -1.550000 44.765006
v 32.081277 -1.550000 45.551913
v 30.941274 -1.550000 46.306889
v 29.781021 -1.550000 47.029371
v 28.601679 -1.550000 47.719019
v 27.404513 -1.550000 48.375730
v 26.190854 -1.550000 48.999642
v 24.962077 -1.550000 49.591129
v 23.719555 -1.550000 50.150786
v 22.464635 -1.550000 50.679404
v 21.198594 -1.550000 51.177933
v 19.922618 -1.550000 51.647446
v 18.637773 -1.550000 52.089085
v 17.344982 -1.550000 52.504010
v 16.045021 -1.550000 52.893347
v 14.738509 -1.550000 53.258127
v 13.425911 -1.550000 53.599240
v 12.107553 -1.550000 53.917383
v 10.783640 -1.550000 54.213020
v 9.454278 -1.550000 54.486349
v 8.119509 -1.550000 54.737281
v 6.779339 -1.550000 54.965428
v 5.433781 -1.550000 55.170103
v 4.082886 -1.550000 55.350335
v 2.726780 -1.550000 55.504891
v 1.365697 -1.550000 55.632314
v 0.000000 -1.550000 55.730965
v -1.369790 -1.550000 55.799078
v -2.742989 -1.550000 55.834818
v -4.118736 -1.550000 55.836340
v -5.496003 -1.550000 55.801856
v -6.873602 -1.550000 55.729690
v -8.250202 -1.550000 55.618341
v -9.624356 -1.550000 55.466531
v -10.994532 -1.550000 55.273245
v -12.359144 -1.550000 55.037769
v -13.716592 -1.550000 54.759706
v -15.065297 -1.550000 54.438989
v -16.403739 -1.550000 54.075882
v -17.730490 -1.550000 53.670958
v -19.044239 -1.550000 53.225083
v -20.343823 -1.550000 52.739378
v -21.628234 -1.550000 52.215176
v -22.896634 -1.550000 51.653980
v -24.148352 -1.550000 51.057401
v -25.382877 -1.550000 50.427116
v -26.599843 -1.550000 49.764806
v -27.799007 -1.550000 49.072110
v -28.980223 -1.550000 48.350581
v -30.143409 -1.550000 47.601645
v -31.288515 -1.550000 46.826572
v -32.415486 -1.550000 46.026453
v -33.524230 -1.550000 45.202191
v -34.614588 -1.550000 44.354496
v -35.686308 -1.550000 43.483892
v -36.739022 -1.550000 42.590736
v -37.772234 -1.550000 41.675238
v -38.785316 -1.550000 40.737492
v -39.777506 -1.550000 39.777506
v -40.747920 -1.550000 38.795245
v -41.695568 -1.550000 37.790660
v -42.619379 -1.550000 36.763729
v -43.518227 -1.550000 35.714486
v -44.390966 -1.550000 34.643050
v -45.236465 -1.550000 33.549649
v -46.053641 -1.550000 32.434633
v -46.841494 -1.550000 31.298486
v -47.599138 -1.550000 30.141822
v -48.325826 -1.550000 28.965385
v -49.020967 -1.550000 27.770035
v -49.684142 -1.550000 26.556727
v -50.315104 -1.550000 25.326495
v -50.913776 -1.550000 24.080423
v -51.480234 -1.550000 22.819618
v -52.014689 -1.550000 21.545190
v -52.517458 -1.550000 20.258219
v -52.988931 -1.550000 18.959743
v -53.429529 -1.550000 17.650732
v -53.839671 -1.550000 16.332086
v -54.219727 -1.550000 15.004619
v -54.569983 -1.550000 13.669069
v -54.890604 -1.550000 12.326097
v -55.181608 -1.550000 10.976304
v -55.442840 -1.550000 9.620245
v -55.673962 -1.550000 8.258452
v -55.874446 -1.550000 6.891456
v -56.043581 -1.550000 5.519811
v -56.180490 -1.550000 4.144122
v -56.284153 -1.550000 2.765063
v -56.353442 -1.550000 1.383399
v -56.387162 -1.550000 0.000000
v -56.384098 -1.550000 -1.384152
v -56.343065 -1.550000 -2.767957
v -56.262959 -1.550000 -4.150205
v -56.142809 -1.550000 -5.529584
v -55.981825 -1.550000 -6.904700
v -55.779440 -1.550000 -8.274098
v -55.535347 -1.550000 -9.636297
v -55.249522 -1.550000 -10.989813
v -54.922245 -1.550000 -12.333203
v -54.554102 -1.550000 -13.665091
v -54.145981 -1.550000 -14.984211
v -53.699052 -1.550000 -16.289429
v -53.214742 -1.550000 -17.579776
v -52.694695 -1.550000 -18.854463
v -52.140728 -1.550000 -20.112898
v -51.554776 -1.550000 -21.354687
v -50.938838 -1.550000 -22.579634
v -50.294917 -1.550000 -23.787724
v -49.624962 -1.550000 -24.979107
v -48.930816 -1.550000 -26.154066
v -48.214162 -1.550000 -27.312985
v -47.476479 -1.550000 -28.456306
v -46.719014 -1.550000 -29.584489
v -45.942751 -1.550000 -30.697965
v -45.148401 -1.550000 -31.797092
v -44.336400 -1.550000 -32.882115
v -43.506914 -1.550000 -33.953129
v -42.659863 -1.550000 -35.010045
v -41.794947 -1.550000 -36.052569
v -40.911685 -1.550000 -37.080190
v -40.009457 -1.550000 -38.092169
v -39.087549 -1.550000 -39.087549
v -38.145210 -1.550000 -40.065167
v -37.181696 -1.550000 -41.023680
v -36.196319 -1.550000 -41.961593
v -35.188493 -1.550000 -42.877302
v -34.157770 -1.550000 -43.769137
v -33.103873 -1.550000 -44.635405
v -32.026717 -1.550000 -45.474444
v -30.926425 -1.550000 -46.284666
v -29.803330 -1.550000 -47.064602
v -28.657974 -1.550000 -47.812941
v -27.491093 -1.550000 -48.528565
v -26.303597 -1.550000 -49.210568
v -25.096547 -1.550000 -49.858275
v -23.871122 -1.550000 -50.471247
v -22.628587 -1.550000 -51.049275
v -21.370258 -1.550000 -51.592366
v -20.097466 -1.550000 -52.100722
v -18.811532 -1.550000 -52.574709
v -17.513731 -1.550000 -53.014819
v -16.205275 -1.550000 -53.421631
v -14.887294 -1.550000 -53.795767
v -13.560825 -1.550000 -54.137849
v -12.226810 -1.550000 -54.448456
v -10.886094 -1.550000 -54.728090
v -9.539439 -1.550000 -54.977141
v -8.187532 -1.550000 -55.195860
v -6.831008 -1.550000 -55.384349
v -5.470463 -1.550000 -55.542547
v -4.106483 -1.550000 -55.670233
v -2.739659 -1.550000 -55.767038
v -1.370610 -1.550000 -55.832465
v -0.000000 -1.550000 -55.865914
v 1.371451 -1.550000 -55.866715
v 2.742957 -1.550000 -55.834165
v 4.113663 -1.550000 -55.767574
v 5.482652 -1.550000 -55.666295
v 6.848944 -1.550000 -55.529774
v 8.211521 -1.550000 -55.357579
v 9.569335 -1.550000 -55.149434
v 10.921332 -1.550000 -54.905241
v 12.266476 -1.550000 -54.625097
v 13.603771 -1.550000 -54.309298
v 14.932284 -1.550000 -53.958342
v 16.251165 -1.550000 -53.572913
v 17.559663 -1.550000 -53.153859
v 18.857138 -1.550000 -52.702171
v 20.143068 -1.550000 -52.218940
v 21.417045 -1.550000 -51.705320
v 22.678772 -1.550000 -51.162489
v 23.928044 -1.550000 -50.591599
v 25.164732 -1.550000 -49.993736
v 26.388751 -1.550000 -49.369881
v 27.600034 -1.550000 -48.720874
v 28.798495 -1.550000 -48.047386
v 29.983993 -1.550000 -47.349899
v 31.156298 -1.550000 -46.628695
v 32.315057 -1.550000 -45.883855
v 33.459764 -1.550000 -45.115268
v 34.589734 -1.550000 -44.322649
v 35.704091 -1.550000 -43.505561
v 36.801753 -1.550000 -42.663459
v 37.881432 -1.550000 -41.795720
v 38.941650 -1.550000 -40.901694
v 39.980750 -1.550000 -39.980750
v 40.996927 -1.550000 -39.032319
v 41.988264 -1.550000 -38.055945
v 42.952777 -1.550000 -37.051321
v 43.888459 -1.550000 -36.018327
v 44.793333 -1.550000 -34.957060
v 45.665508 -1.550000 -33.867849
v 46.503228 -1.550000 -32.751268
v 47.304922 -1.550000 -31.608138
v 48.069248 -1.550000 -30.439516
v 48.795132 -1.550000 -29.246677
v 49.481792 -1.550000 -28.031089
v 50.128759 -1.550000 -26.794380
v 50.735883 -1.550000 -25.538297
v 51.303327 -1.550000 -24.264667
v 51.831555 -1.550000 -22.975348
v 52.321301 -1.550000 -21.672193
v 52.773535 -1.550000 -20.356999
v 53.189417 -1.550000 -19.031478
v 53.570245 -1.550000 -17.697219
v 53.917403 -1.550000 -16.355665
v 54.232295 -1.550000 -15.008097
v 54.516297 -1.550000 -13.655622
v 54.770694 -1.550000 -12.299171
v 54.996632 -1.550000 -10.939510
v 55.195076 -1.550000 -9.577254
v 55.366772 -1.550000 -8.212885
v 55.512226 -1.550000 -6.846780
v 55.631685 -1.550000 -5.479243
v 55.725139 -1.550000 -4.110533
v 55.792327 -1.550000 -2.740901
v 55.832754 -1.550000 -1.370617
vt 0.5000000 0.5000000
vt 0.9653811 0.5000000
vt 0.9652532 0.5114213
vt 0.9648811 0.5228381
vt 0.9642561 0.5342456
vt 0.9633691 0.5456379
vt 0.9622114 0.5570083
vt 0.9607747 0.5683495
vt 0.9590519 0.5796531
vt 0.9570371 0.5909103
vt 0.9547259 0.6021121
vt 0.9521159 0.6132491
vt 0.9492062 0.6243121
vt 0.9459979 0.6352920
vt 0.9424938 0.6461802
vt 0.9386984 0.6569688
vt 0.9346176 0.6676505
vt 0.9302585 0.6782189
vt 0.9256289 0.6886683
vt 0.9207375 0.6989940
vt 0.9155928 0.7091919
vt 0.9102036 0.7192584
vt 0.9045779 0.7291906
vt 0.8987234 0.7389856
vt 0.8926466 0.7486407
vt 0.8863533 0.7581530
vt 0.8798480 0.7675191
vt 0.8731340 0.7767350
vt 0.8662138 0.7857961
vt 0.8590888 0.7946966
vt 0.8517597 0.8034300
vt 0.8442266 0.8119888
vt 0.8364894 0.8203645
vt 0.8285478 0.8285478
vt 0.8204022 0.8365289
vt 0.8120530 0.8442974
vt 0.8035018 0.8518429
vt 0.7947510 0.8591552
vt 0.7858043 0.8662244
vt 0.7766666 0.8730417
vt 0.7673440 0.8795993
vt 0.7578439 0.8858907
vt 0.7481752 0.8919114
vt 0.7383473 0.8976585
vt 0.7283709 0.9031311
vt 0.7182571 0.9083304
vt 0.7080173 0.9132594
vt 0.6976630 0.9179232
vt 0.6872053 0.9223284
vt 0.6766550 0.9264828
vt 0.6660218 0.9303954
vt 0.6553148 0.9340757
vt 0.6445415 0.9375334
vt 0.6337085 0.9407779
vt 0.6228209 0.9438177
vt 0.6118826 0.9466603
vt 0.6008963 0.9493115
vt 0.5898637 0.9517752
vt 0.5787857 0.9540529
vt 0.5676626 0.9561440
vt 0.5564945 0.9580452
vt 0.5452815 0.9597509
vt 0.5340241 0.9612528
vt 0.5227232 0.9625408
vt 0.5113808 0.9636026
vt 0.5000000 0.9644247
vt 0.4885851 0.9649923
vt 0.4771418 0.9652902
vt 0.4656772 0.9653028
vt 0.4542000 0.9650155
vt 0.4427200 0.9644141
vt 0.4312483 0.9634862
vt 0.4197970 0.9622211
vt 0.4083789 0.9606104
vt 0.3970071 0.9586481
vt 0.3856951 0.9563309
vt 0.3744559 0.9536582
vt 0.3633022 0.9506323
vt 0.3522459 0.9472580
vt 0.3412980 0.9435424
vt 0.3304681 0.9394948
vt 0.3197647 0.9351265
vt 0.3091947 0.9304498
vt 0.2987637 0.9254783
vt 0.2884760 0.9202260
vt 0.2783346 0.9147067
vt 0.2683416 0.9089342
vt 0.2584981 0.9029215
vt 0.2488049 0.8966804
vt 0.2392624 0.8902214
vt 0.2298710 0.8835538
vt 0.2206314 0.8766849
vt 0.2115451 0.8696208
vt 0.2026141 0.8623658
vt 0.1938415 0.8549228
vt 0.1852314 0.8472937
vt 0.1767890 0.8394791
vt 0.1685208 0.8314792
vt 0.1604340 0.8232937
vt 0.1525369 0.8149222
vt 0.1448385 0.8063644
vt 0.1373481 0.7976207
vt 0.1300753 0.7886921
vt 0.1230295 0.7795804
vt 0.1162197 0.7702886
vt 0.1096542 0.7608207
vt 0.1033405 0.7511818
vt 0.0972848 0.7413782
vt 0.0914919 0.7314170
vt 0.0859655 0.7213061
vt 0.0807075 0.7110541
vt 0.0757185 0.7006702
vt 0.0709981 0.6901635
vt 0.0665443 0.6795432
vt 0.0623545 0.6688185
vt 0.0584256 0.6579979
vt 0.0547539 0.6470894
vt 0.0513361 0.6361007
vt 0.0481689 0.6250385
vt 0.0452501 0.6139089
vt 0.0425783 0.6027175
vt 0.0401533 0.5914692
vt 0.0379763 0.5801687
vt 0.0360503 0.5688204
vt 0.0343796 0.5574288
vt 0.0329702 0.5459984
vt 0.0318292 0.5345343
vt 0.0309654 0.5230422
vt 0.0303880 0.5115283
vt 0.0301070 0.5000000
vt 0.0301325 0.4884654
vt 0.0304745 0.4769337
vt 0.0311420 0.4654150
vt 0.0321433 0.4539201
vt 0.0334848 0.4424608
vt 0.0351713 0.4310492
vt 0.0372054 0.4196975
vt 0.0395873 0.4084182
vt 0.0423146 0.3972233
vt 0.0453825 0.3861242
vt 0.0487835 0.3751316
vt 0.0525079 0.3642548
vt 0.0565438 0.3535019
vt 0.0608775 0.3428795
vt 0.0654939 0.3323925
vt 0.0703769 0.3220443
vt 0.0755097 0.3118364
vt 0.0808757 0.3017690
vt 0.0864586 0.2918408
vt 0.0922432 0.2820494
vt 0.0982153 0.2723918
vt 0.1043627 0.2628641
vt 0.1106749 0.2534626
vt 0.1171437 0.2441836
vt 0.1237633 0.2350242
vt 0.1305300 0.2259824
vt 0.1374424 0.2170573
vt 0.1445011 0.2082496
vt 0.1517088 0.1995619
vt 0.1590693 0.1909984
vt 0.1665879 0.1825653
vt 0.1742704 0.1742704
vt 0.1821232 0.1661236
vt 0.1901525 0.1581360
vt 0.1983640 0.1503201
vt 0.2067626 0.1426891
vt 0.2153519 0.1352572
vt 0.2241344 0.1280383
vt 0.2331107 0.1210463
vt 0.2422798 0.1142944
vt 0.2516389 0.1077950
vt 0.2611835 0.1015588
vt 0.2709076 0.0955953
vt 0.2808034 0.0899119
vt 0.2908621 0.0845144
vt 0.3010740 0.0794063
vt 0.3114284 0.0745894
vt 0.3219145 0.0700636
vt 0.3325211 0.0658273
vt 0.3432372 0.0618774
vt 0.3540522 0.0582098
vt 0.3649560 0.0548197
vt 0.3759392 0.0517019
vt 0.3869931 0.0488513
vt 0.3981099 0.0462629
vt 0.4092825 0.0439326
vt 0.4205047 0.0418572
vt 0.4317706 0.0400345
vt 0.4430749 0.0384638
vt 0.4544128 0.0371454
vt 0.4657793 0.0360814
vt 0.4771695 0.0352747
vt 0.4885782 0.0347295
vt 0.5000000 0.0344507
vt 0.5114288 0.0344440
vt 0.5228580 0.0347153
vt 0.5342805 0.0352702
vt 0.5456888 0.0361142
vt 0.5570745 0.0372519
vt 0.5684293 0.0386868
vt 0.5797445 0.0404214
vt 0.5910111 0.0424563
vt 0.6022206 0.0447909
vt 0.6133648 0.0474225
vt 0.6244357 0.0503471
vt 0.6354264 0.0535591
vt 0.6463305 0.0570512
vt 0.6571428 0.0608152
vt 0.6678589 0.0648422
vt 0.6784754 0.0691223
vt 0.6889898 0.0736459
vt 0.6994004 0.0784033
vt 0.7097061 0.0833855
vt 0.7199063 0.0885843
vt 0.7300003 0.0939927
vt 0.7399875 0.0996051
vt 0.7498666 0.1054175
vt 0.7596358 0.1114275
vt 0.7692921 0.1176345
vt 0.7788314 0.1240394
vt 0.7882478 0.1306446
vt 0.7975341 0.1374537
vt 0.8066813 0.1444712
vt 0.8156786 0.1517023
vt 0.8245138 0.1591525
vt 0.8331729 0.1668271
vt 0.8416411 0.1747307
vt 0.8499022 0.1828671
vt 0.8579398 0.1912390
vt 0.8657372 0.1998473
vt 0.8732778 0.2086912
vt 0.8805459 0.2177679
vt 0.8875269 0.2270728
vt 0.8942077 0.2365988
vt 0.9005771 0.2463374
vt 0.9066261 0.2562777
vt 0.9123483 0.2664076
vt 0.9177397 0.2767135
vt 0.9227990 0.2871809
vt 0.9275277 0.2977944
vt 0.9319296 0.3085388
vt 0.9360108 0.3193984
vt 0.9397795 0.3303583
vt 0.9432451 0.3414044
vt 0.9464187 0.3525232
vt 0.9493117 0.3637028
vt 0.9519358 0.3749325
vt 0.9543025 0.3862032
vt 0.9564225 0.3975069
vt 0.9583053 0.4088374
vt 0.9599590 0.4201895
vt 0.9613898 0.4315593
vt 0.9626019 0.4429435
vt 0.9635974 0.4543396
vt 0.9643762 0.4657456
vt 0.9649361 0.4771592
vt 0.9652730 0.4885782
vn 0.0000000 1.0000000 0.0000000
vn 0.0000000 1.0000000 0.0000000
vn 0.0000000 1.0000000 0.0000000
vn 0.0000000 1.0000000 0.0000000
vn 0.0000000 1.0000000 0.0000000
vn 0.0000000 1.0000000 0.0000000
vn 0.0000000 1.0000000 0.0000000
vn 0.0000000 1.0000000 0.0000000
vn 0.0000000 1.0000000 0.0000000
vn 0.0000000 1.0000000 0.0000000
vn 0.0000000 1.0000000 0.0000000
vn 0.0000000 1.0000000 0.0000000
vn 0.0000000 1.0000000 0.0000000
vn 0.0000000 1.0000000 0.0000000
vn 0.0000000 1.0000000 0.0000000
vn 0.0000000 1.0000000 0.0000000
vn 0.0000000 1.0000000 0.0000000
vn 0.0000000 1.0000000 0.0000000
vn 0.0000000 1.0000000 0.0000000
vn 0.0000000 1.0000000 0.0000000
vn 0.0000000 1.0000000 0.0000000
vn 0.0000000 1.0000000 0.0000000
vn 0.0000000 1.0000000 0.0000000
vn 0.0000000 1.0000000 0.0000000
vn 0.0000000 1.0000000 0.0000000
vn 0.0000000 1.0000000 0.0000000
vn 0.0000000 1.0000000 0.0000000
vn 0.0000000 1.0000000 0.0000000
vn 0.0000000 1.0000000 0.0000000
vn 0.0000000 1.0000000 0.0000000
vn 0.0000000 1.0000000 0.0000000
vn 0.0000000 1.0000000 0.0000000
vn 0.0000000 1.0000000 0.0000000
vn 0.0000000 1.0000000 0.0000000
vn 0.0000000 1.0000000 0.0000000
vn 0.0000000 1.0000000 0.0000000
vn 0.0000000 1.0000000 0.0000000
vn 0.0000000 1.0000000 0.0000000
vn 0.0000000 1.0000000 0.0000000
vn 0.0000000 1.0000000 0.0000000
vn 0.0000000 1.0000000 0.0000000
vn 0.0000000 1.0000000 0.0000000
vn 0.0000000 1.0000000 0.0000000
vn 0.0000000 1.0000000 0.0000000
vn 0.0000000 1.0000000 0.0000000
vn 0.0000000 1.0000000 0.0000000
vn 0.0000000 1.0000000 0.0000000
vn 0.0000000 1.0000000 0.0000000
vn 0.0000000 1.0000000 0.0000000
vn 0.0000000 1.0000000 0.0000000
vn 0.0000000 1.0000000 0.0000000
vn 0.0000000 1.0000000 0.0000000
vn 0.0000000 1.0000000 0.0000000
vn 0.0000000 1.0000000 0.0000000
vn 0.0000000 1.0000000 0.0000000
vn 0.0000000 1.0000000 0.0000000
vn 0.0000000 1.0000000 0.0000000
vn 0.0000000 1.0000000 0.0000000
vn 0.0000000 1.0000000 0.0000000
vn 0.0000000 1.0000000 0.0000000
vn 0.0000000 1.0000000 0.0000000
vn 0.0000000 1.0000000 0.0000000
vn 0.0000000 1.0000000 0.0000000
vn 0.0000000 1.0000000 0.0000000
vn 0.0000000 1.0000000 0.0000000
vn 0.0000000 1.0000000 0.0000000
vn 0.0000000 1.0000000 0.0000000
vn 0.0000000 1.0000000 0.0000000
vn 0.0000000 1.0000000 0.0000000
vn 0.0000000 1.0000000 0.0000000
vn 0.0000000 1.0000000 0.0000000
vn 0.0000000 1.0000000 0.0000000
vn 0.0000000 1.0000000 0.0000000
vn 0.0000000 1.0000000 0.0000000
vn 0.0000000 1.0000000 0.0000000
vn 0.0000000 1.0000000 0.0000000
vn 0.0000000 1.0000000 0.0000000
vn 0.0000000 1.0000000 0.0000000
vn 0.0000000 1.0000000 0.0000000
vn 0.0000000 1.0000000 0.0000000
vn 0.0000000 1.0000000 0.0000000
vn 0.0000000 1.0000000 0.0000000
vn 0.0000000 1.0000000 0.0000000
vn 0.0000000 1.0000000 0.0000000
vn 0.0000000 1.0000000 0.0000000
vn 0.0000000 1.0000000 0.0000000
vn 0.0000000 1.0000000 0.0000000
vn 0.0000000 1.0000000 0.0000000
vn 0.0000000 1.0000000 0.0000000
vn 0.0000000 1.0000000 0.0000000
vn 0.0000000 1.0000000 0.0000000
vn 0.0000000 1.0000000 0.0000000
vn 0.0000000 1.0000000 0.0000000
vn 0.0000000 1.0000000 0.0000000
vn 0.0000000 1.0000000 0.0000000
vn 0.0000000 1.0000000 0.0000000
vn 0.0000000 1.0000000 0.0000000
vn 0.0000000 1.0000000 0.0000000
vn 0.0000000 1.0000000 0.0000000
vn 0.0000000 1.0000000 0.0000000
vn 0.0000000 1.0000000 0.0000000
vn 0.0000000 1.0000000 0.0000000
vn 0.0000000 1.0000000 0.0000000
vn 0.0000000 1.0000000 0.0000000
vn 0.0000000 1.0000000 0.0000000
vn 0.0000000 1.0000000 0.0000000
vn 0.0000000 1.0000000 0.0000000
vn 0.0000000 1.0000000 0.0000000
vn 0.0000000 1.0000000 0.0000000
vn 0.0000000 1.0000000 0.0000000
vn 0.0000000 1.0000000 0.0000000
vn 0.0000000 1.0000000 0.0000000
vn 0.0000000 1.0000000 0.0000000
vn 0.0000000 1.0000000 0.0000000
vn 0.0000000 1.0000000 0.0000000
vn 0.0000000 1.0000000 0.0000000
vn 0.0000000 1.0000000 0.0000000
vn 0.0000000 1.0000000 0.0000000
vn 0.0000000 1.0000000 0.0000000
vn 0.0000000 1.0000000 0.0000000
vn 0.0000000 1.0000000 0.0000000
vn 0.0000000 1.0000000 0.0000000
vn 0.0000000 1.0000000 0.0000000
vn 0.0000000 1.0000000 0.0000000
vn 0.0000000 1.0000000 0.0000000
vn 0.0000000 1.0000000 0.0000000
vn 0.0000000 1.0000000 0.0000000
vn 0.0000000 1.0000000 0.0000000
vn 0.0000000 1.0000000 0.0000000
vn 0.0000000 1.0000000 0.0000000
vn 0.0000000 1.0000000 0.0000000
vn 0.0000000 1.0000000 0.0000000
vn 0.0000000 1.0000000 0.0000000
vn 0.0000000 1.0000000 0.0000000
vn 0.0000000 1.0000000 0.0000000
vn 0.0000000 1.0000000 0.0000000
vn 0.0000000 1.0000000 0.0000000
vn 0.0000000 1.0000000 0.0000000
vn 0.0000000 1.0000000 0.0000000
vn 0.0000000 1.0000000 0.0000000
vn 0.0000000 1.0000000 0.0000000
vn 0.0000000 1.0000000 0.0000000
vn 0.0000000 1.0000000 0.0000000
vn 0.0000000 1.0000000 0.0000000
vn 0.0000000 1.0000000 0.0000000
vn 0.0000000 1.0000000 0.0000000
vn 0.0000000 1.0000000 0.0000000
vn 0.0000000 1.0000000 0.0000000
vn 0.0000000 1.0000000 0.0000000
vn 0.0000000 1.0000000 0.0000000
vn 0.0000000 1.0000000 0.0000000
vn 0.0000000 1.0000000 0.0000000
vn 0.0000000 1.0000000 0.0000000
vn 0.0000000 1.0000000 0.0000000
vn 0.0000000 1.0000000 0.0000000
vn 0.0000000 1.0000000 0.0000000
vn 0.0000000 1.0000000 0.0000000
vn 0.0000000 1.0000000 0.0000000
vn 0.0000000 1.0000000 0.0000000
vn 0.0000000 1.0000000 0.0000000
vn 0.0000000 1.0000000 0.0000000
vn 0.0000000 1.0000000 0.0000000
vn 0.0000000 1.0000000 0.0000000
vn 0.0000000 1.0000000 0.0000000
vn 0.0000000 1.0000000 0.0000000
vn 0.0000000 1.0000000 0.0000000
vn 0.0000000 1.0000000 0.0000000
vn 0.0000000 1.0000000 0.0000000
vn 0.0000000 1.0000000 0.0000000
vn 0.0000000 1.0000000 0.0000000
vn 0.0000000 1.0000000 0.0000000
vn 0.0000000 1.0000000 0.0000000
vn 0.0000000 1.0000000 0.0000000
vn 0.0000000 1.0000000 0.0000000
vn 0.0000000 1.0000000 0.0000000
vn 0.0000000 1.0000000 0.0000000
vn 0.0000000 1.0000000 0.0000000
vn 0.0000000 1.0000000 0.0000000
vn 0.0000000 1.0000000 0.0000000
vn 0.0000000 1.0000000 0.0000000
vn 0.0000000 1.0000000 0.0000000
vn 0.0000000 1.0000000 0.0000000
vn 0.0000000 1.0000000 0.0000000
vn 0.0000000 1.0000000 0.0000000
vn 0.0000000 1.0000000 0.0000000
vn 0.0000000 1.0000000 0.0000000
vn 0.0000000 1.0000000 0.0000000
vn 0.0000000 1.0000000 0.0000000
vn 0.0000000 1.0000000 0.0000000
vn 0.0000000 1.0000000 0.0000000
vn 0.0000000 1.0000000 0.0000000
vn 0.0000000 1.0000000 0.0000000
vn 0.0000000 1.0000000 0.0000000
vn 0.0000000 1.0000000 0.0000000
vn 0.0000000 1.0000000 0.0000000
vn 0.0000000 1.0000000 0.0000000
vn 0.0000000 1.0000000 0.0000000
vn 0.0000000 1.0000000 0.0000000
vn 0.0000000 1.0000000 0.0000000
vn 0.0000000 1.0000000 0.0000000
vn 0.0000000 1.0000000 0.0000000
vn 0.0000000 1.0000000 0.0000000
vn 0.0000000 1.0000000 0.0000000
vn 0.0000000 1.0000000 0.0000000
vn 0.0000000 1.0000000 0.0000000
vn 0.0000000 1.0000000 0.0000000
vn 0.0000000 1.0000000 0.0000000
vn 0.0000000 1.0000000 0.0000000
vn 0.0000000 1.0000000 0.0000000
vn 0.0000000 1.0000000 0.0000000
vn 0.0000000 1.0000000 0.0000000
vn 0.0000000 1.0000000 0.0000000
vn 0.0000000 1.0000000 0.0000000
vn 0.0000000 1.0000000 0.0000000
vn 0.0000000 1.0000000 0.0000000
vn 0.0000000 1.0000000 0.0000000
vn 0.0000000 1.0000000 0.0000000
vn 0.0000000 1.0000000 0.0000000
vn 0.0000000 1.0000000 0.0000000
vn 0.0000000 1.0000000 0.0000000
vn 0.0000000 1.0000000 0.0000000
vn 0.0000000 1.0000000 0.0000000
vn 0.0000000 1.0000000 0.0000000
vn 0.0000000 1.0000000 0.0000000
vn 0.0000000 1.0000000 0.0000000
vn 0.0000000 1.0000000 0.0000000
vn 0.0000000 1.0000000 0.0000000
vn 0.0000000 1.0000000 0.0000000
vn 0.0000000 1.0000000 0.0000000
vn 0.0000000 1.0000000 0.0000000
vn 0.0000000 1.0000000 0.0000000
vn 0.0000000 1.0000000 0.0000000
vn 0.0000000 1.0000000 0.0000000
vn 0.0000000 1.0000000 0.0000000
vn 0.0000000 1.0000000 0.0000000
vn 0.0000000 1.0000000 0.0000000
vn 0.0000000 1.0000000 0.0000000
vn 0.0000000 1.0000000 0.0000000
vn 0.0000000 1.0000000 0.0000000
vn 0.0000000 1.0000000 0.0000000
vn 0.0000000 1.0000000 0.0000000
vn 0.0000000 1.0000000 0.0000000
vn 0.0000000 1.0000000 0.0000000
vn 0.0000000 1.0000000 0.0000000
vn 0.0000000 1.0000000 0.0000000
vn 0.0000000 1.0000000 0.0000000
vn 0.0000000 1.0000000 0.0000000
vn 0.0000000 1.0000000 0.0000000
vn 0.0000000 1.0000000 0.0000000
vn 0.0000000 1.0000000 0.0000000
vn 0.0000000 1.0000000 0.0000000
vn 0.0000000 1.0000000 0.0000000
vn 0.0000000 1.0000000 0.0000000
vn 0.0000000 1.0000000 0.0000000
vn 0.0000000 1.0000000 0.0000000
vn 0.0000000 1.0000000 0.0000000
vn 0.0000000 1.0000000 0.0000000
s 1
f 1/1/1 3/3/3 2/2/2
f 1/1/1 4/4/4 3/3/3
f 1/1/1 5/5/5 4/4/4
f 1/1/1 6/6/6 5/5/5
f 1/1/1 7/7/7 6/6/6
f 1/1/1 8/8/8 7/7/7
f 1/1/1 9/9/9 8/8/8
f 1/1/1 10/10/10 9/9/9
f 1/1/1 11/11/11 10/10/10
f 1/1/1 12/12/12 11/11/11
f 1/1/1 13/13/13 12/12/12
f 1/1/1 14/14/14 13/13/13
f 1/1/1 15/15/15 14/14/14
f 1/1/1 16/16/16 15/15/15
f 1/1/1 17/17/17 16/16/16
f 1/1/1 18/18/18 17/17/17
f 1/1/1 19/19/19 18/18/18
f 1/1/1 20/20/20 19/19/19
f 1/1/1 21/21/21 20/20/20
f 1/1/1 22/22/22 21/21/21
f 1/1/1 23/23/23 22/22/22
f 1/1/1 24/24/24 23/23/23
f 1/1/1 25/25/25 24/24/24
f 1/1/1 26/26/26 25/25/25
f 1/1/1 27/27/27 26/26/26
f 1/1/1 28/28/28 27/27/27
f 1/1/1 29/29/29 28/28/28
f 1/1/1 30/30/30 29/29/29
f 1/1/1 31/31/31 30/30/30
f 1/1/1 32/32/32 31/31/31
f 1/1/1 33/33/33 32/32/32
f 1/1/1 34/34/34 33/33/33
f 1/1/1 35/35/35 34/34/34
f 1/1/1 36/36/36 35/35/35
f 1/1/1 37/37/37 36/36/36
f 1/1/1 38/38/38 37/37/37
f 1/1/1 39/39/39 38/38/38
f 1/1/1 40/40/40 39/39/39
f 1/1/1 41/41/41 40/40/40
f 1/1/1 42/42/42 41/41/41
f 1/1/1 43/43/43 42/42/42
f 1/1/1 44/44/44 43/43/43
f 1/1/1 45/45/45 44/44/44
f 1/1/1 46/46/46 45/45/45
f 1/1/1 47/47/47 46/46/46
f 1/1/1 48/48/48 47/47/47
f 1/1/1 49/49/49 48/48/48
f 1/1/1 50/50/50 49/49/49
f 1/1/1 51/51/51 50/50/50
f 1/1/1 52/52/52 51/51/51
f 1/1/1 53/53/53 52/52/52
f 1/1/1 54/54/54 53/53/53
f 1/1/1 55/55/55 54/54/54
f 1/1/1 56/56/56 55/55/55
f 1/1/1 57/57/57 56/56/56
f 1/1/1 58/58/58 57/57/57
f 1/1/1 59/59/59 58/58/58
f 1/1/1 60/60/60 59/59/59
f 1/1/1 61/61/61 60/60/60
f 1/1/1 62/62/62 61/61/61
f 1/1/1 63/63/63 62/62/62
f 1/1/1 64/64/64 63/63/63
f 1/1/1 65/65/65 64/64/64
f 1/1/1 66/66/66 65/65/65
f 1/1/1 67/67/67 66/66/66
f 1/1/1 68/68/68 67/67/67
f 1/1/1 69/69/69 68/68/68
f 1/1/1 70/70/70 69/69/69
f 1/1/1 71/71/71 70/70/70
f 1/1/1 72/72/72 71/71/71
f 1/1/1 73/73/73 72/72/72
f 1/1/1 74/74/74 73/73/73
f 1/1/1 75/75/75 74/74/74
f 1/1/1 76/76/76 75/75/75
f 1/1/1 77/77/77 76/76/76
f 1/1/1 78/78/78 77/77/77
f 1/1/1 79/79/79 78/78/78
f 1/1/1 80/80/80 79/79/79
f 1/1/1 81/81/81 80/80/80
f 1/1/1 82/82/82 81/81/81
f 1/1/1 83/83/83 82/82/82
f 1/1/1 84/84/84 83/83/83
f 1/1/1 85/85/85 84/84/84
f 1/1/1 86/86/86 85/85/85
f 1/1/1 87/87/87 86/86/86
f 1/1/1 88/88/88 87/87/87
f 1/1/1 89/89/89 88/88/88
f 1/1/1 90/90/90 89/89/89
f 1/1/1 91/91/91 90/90/90
f 1/1/1 92/92/92 91/91/91
f 1/1/1 93/93/93 92/92/92
f 1/1/1 94/94/94 93/93/93
f 1/1/1 95/95/95 94/94/94
f 1/1/1 96/96/96 95/95/95
f 1/1/1 97/97/97 96/96/96
f 1/1/1 98/98/98 97/97/97
f 1/1/1 99/99/99 98/98/98
f 1/1/1 100/100/100 99/99/99
f 1/1/1 101/101/101 100/100/100
f 1/1/1 102/102/102 101/101/101
f 1/1/1 103/103/103 102/102/102
f 1/1/1 104/104/104 103/103/103
f 1/1/1 105/105/105 104/104/104
f 1/1/1 106/106/106 105/105/105
f 1/1/1 107/107/107 106/106/106
f 1/1/1 108/108/108 107/107/107
f 1/1/1 109/109/109 108/108/108
f 1/1/1 110/110/110 109/109/109
f 1/1/1 111/111/111 110/110/110
f 1/1/1 112/112/112 111/111/111
f 1/1/1 113/113/113 112/112/112
f 1/1/1 114/114/114 113/113/113
f 1/1/1 115/115/115 114/114/114
f 1/1/1 116/116/116 115/115/115
f 1/1/1 117/117/117 116/116/116
f 1/1/1 118/118/118 117/117/117
f 1/1/1 119/119/119 118/118/118
f 1/1/1 120/120/120 119/119/119
f 1/1/1 121/121/121 120/120/120
f 1/1/1 122/122/122 121/121/121
f 1/1/1 123/123/123 122/122/122
f 1/1/1 124/124/124 123/123/123
f 1/1/1 125/125/125 124/124/124
f 1/1/1 126/126/126 125/125/125
f 1/1/1 127/127/127 126/126/126
f 1/1/1 128/128/128 127/127/127
f 1/1/1 129/129/129 128/128/128
f 1/1/1 130/130/130 129/129/129
f 1/1/1 131/131/131 130/130/130
f 1/1/1 132/132/132 131/131/131
f 1/1/1 133/133/133 132/132/132
f 1/1/1 134/134/134 133/133/133
f 1/1/1 135/135/135 134/134/134
f 1/1/1 136/136/136 135/135/135
f 1/1/1 137/137/137 136/136/136
f 1/1/1 138/138/138 137/137/137
f 1/1/1 139/139/139 138/138/138
f 1/1/1 140/140/140 139/139/139
f 1/1/1 141/141/141 140/140/140
f 1/1/1 142/142/142 141/141/141
f 1/1/1 143/143/143 142/142/142
f 1/1/1 144/144/144 143/143/143
f 1/1/1 145/145/145 144/144/144
f 1/1/1 146/146/146 145/145/145
f 1/1/1 147/147/147 146/146/146
f 1/1/1 148/148/148 147/147/147
f 1/1/1 149/149/149 148/148/148
f 1/1/1 150/150/150 149/149/149
f 1/1/1 151/151/151 150/150/150
f 1/1/1 152/152/152 151/151/151
f 1/1/1 153/153/153 152/152/152
f 1/1/1 154/154/154 153/153/153
f 1/1/1 155/155/155 154/154/154
f 1/1/1 156/156/156 155/155/155
f 1/1/1 157/157/157 156/156/156
f 1/1/1 158/158/158 157/157/157
f 1/1/1 159/159/159 158/158/158
f 1/1/1 160/160/160 159/159/159
f 1/1/1 161/161/161 160/160/160
f 1/1/1 162/162/162 161/161/161
f 1/1/1 163/163/163 162/162/162
f 1/1/1 164/164/164 163/163/163
f 1/1/1 165/165/165 164/164/164
f 1/1/1 166/166/166 165/165/165
f 1/1/1 167/167/167 166/166/166
f 1/1/1 168/168/168 167/167/167
f 1/1/1 169/169/169 168/168/168
f 1/1/1 170/170/170 169/169/169
f 1/1/1 171/171/171 170/170/170
f 1/1/1 172/172/172 171/171/171
f 1/1/1 173/173/173 172/172/172
f 1/1/1 174/174/174 173/173/173
f 1/1/1 175/175/175 174/174/174
f 1/1/1 176/176/176 175/175/175
f 1/1/1 177/177/177 176/176/176
f 1/1/1 178/178/178 177/177/177
f 1/1/1 179/179/179 178/178/178
f 1/1/1 180/180/180 179/179/179
f 1/1/1 181/181/181 180/180/180
f 1/1/1 182/182/182 181/181/181
f 1/1/1 183/183/183 182/182/182
f 1/1/1 184/184/184 183/183/183
f 1/1/1 185/185/185 184/184/184
f 1/1/1 186/186/186 185/185/185
f 1/1/1 187/187/187 186/186/186
f 1/1/1 188/188/188 187/187/187
f 1/1/1 189/189/189 188/188/188
f 1/1/1 190/190/190 189/189/189
f 1/1/1 191/191/191 190/190/190
f 1/1/1 192/192/192 191/191/191
f 1/1/1 193/193/193 192/192/192
f 1/1/1 194/194/194 193/193/193
f 1/1/1 195/195/195 194/194/194
f 1/1/1 196/196/196 195/195/195
f 1/1/1 197/197/197 196/196/196
f 1/1/1 198/198/198 197/197/197
f 1/1/1 199/199/199 198/198/198
f 1/1/1 200/200/200 199/199/199
f 1/1/1 201/201/201 200/200/200
f 1/1/1 202/202/202 201/201/201
f 1/1/1 203/203/203 202/202/202
f 1/1/1 204/204/204 203/203/203
f 1/1/1 205/205/205 204/204/204
f 1/1/1 206/206/206 205/205/205
f 1/1/1 207/207/207 206/206/206
f 1/1/1 208/208/208 207/207/207
f 1/1/1 209/209/209 208/208/208
f 1/1/1 210/210/210 209/209/209
f 1/1/1 211/211/211 210/210/210
f 1/1/1 212/212/212 211/211/211
f 1/1/1 213/213/213 212/212/212
f 1/1/1 214/214/214 213/213/213
f 1/1/1 215/215/215 214/214/214
f 1/1/1 216/216/216 215/215/215
f 1/1/1 217/217/217 216/216/216
f 1/1/1 218/218/218 217/217/217
f 1/1/1 219/219/219 218/218/218
f 1/1/1 220/220/220 219/219/219
f 1/1/1 221/221/221 220/220/220
f 1/1/1 222/222/222 221/221/221
f 1/1/1 223/223/223 222/222/222
f 1/1/1 224/224/224 223/223/223
f 1/1/1 225/225/225 224/224/224
f 1/1/1 226/226/226 225/225/225
f 1/1/1 227/227/227 226/226/226
f 1/1/1 228/228/228 227/227/227
f 1/1/1 229/229/229 228/228/228
f 1/1/1 230/230/230 229/229/229
f 1/1/1 231/231/231 230/230/230
f 1/1/1 232/232/232 231/231/231
f 1/1/1 233/233/233 232/232/232
f 1/1/1 234/234/234 233/233/233
f 1/1/1 235/235/235 234/234/234
f 1/1/1 236/236/236 235/235/235
f 1/1/1 237/237/237 236/236/236
f 1/1/1 238/238/238 237/237/237
f 1/1/1 239/239/239 238/238/238
f 1/1/1 240/240/240 239/239/239
f 1/1/1 241/241/241 240/240/240
f 1/1/1 242/242/242 241/241/241
f 1/1/1 243/243/243 242/242/242
f 1/1/1 244/244/244 243/243/243
f 1/1/1 245/245/245 244/244/244
f 1/1/1 246/246/246 245/245/245
f 1/1/1 247/247/247 246/246/246
f 1/1/1 248/248/248 247/247/247
f 1/1/1 249/249/249 248/248/248
f 1/1/1 250/250/250 249/249/249
f 1/1/1 251/251/251 250/250/250
f 1/1/1 252/252/252 251/251/251
f 1/1/1 253/253/253 252/252/252
f 1/1/1 254/254/254 253/253/253
f 1/1/1 255/255/255 254/254/254
f 1/1/1 256/256/256 255/255/255
f 1/1/1 257/257/257 256/256/256
f 1/1/1 2/2/2 257/257/257
